<svg width="62" height="62" viewBox="0 0 62 62" fill="none" xmlns="http://www.w3.org/2000/svg">
<path d="M26.5761 2.95526C27.1368 2.33935 27.8199 1.8473 28.5817 1.51061C29.3434 1.17391 30.1671 1 31 1C31.8329 1 32.6566 1.17391 33.4184 1.51061C34.1801 1.8473 34.8632 2.33935 35.4239 2.95526L38.4748 6.30531C39.0672 6.95563 39.7957 7.4673 40.6084 7.80387C41.4212 8.14045 42.2981 8.29364 43.1769 8.25253L47.7024 8.04315C48.534 8.00397 49.3647 8.1388 50.1412 8.43902C50.9177 8.73925 51.623 9.19824 52.212 9.78666C52.801 10.3751 53.2607 11.0799 53.5616 11.8562C53.8626 12.6324 53.9982 13.4629 53.9599 14.2946L53.7475 18.8232C53.7064 19.7019 53.8596 20.5788 54.1961 21.3916C54.5327 22.2043 55.0444 22.9328 55.6947 23.5252L59.0447 26.5761C59.6607 27.1368 60.1527 27.8199 60.4894 28.5817C60.8261 29.3434 61 30.1671 61 31C61 31.8329 60.8261 32.6566 60.4894 33.4184C60.1527 34.1801 59.6607 34.8632 59.0447 35.4239L55.6947 38.4748C55.0444 39.0672 54.5327 39.7957 54.1961 40.6084C53.8596 41.4212 53.7064 42.2981 53.7475 43.1769L53.9568 47.7024C53.996 48.534 53.8612 49.3647 53.561 50.1412C53.2608 50.9177 52.8018 51.623 52.2133 52.212C51.6249 52.801 50.9201 53.2607 50.1438 53.5616C49.3676 53.8626 48.5371 53.9982 47.7054 53.9599L43.1769 53.7475C42.2981 53.7064 41.4212 53.8596 40.6084 54.1961C39.7957 54.5327 39.0672 55.0444 38.4748 55.6947L35.4239 59.0447C34.8632 59.6607 34.1801 60.1527 33.4184 60.4894C32.6566 60.8261 31.8329 61 31 61C30.1671 61 29.3434 60.8261 28.5817 60.4894C27.8199 60.1527 27.1368 59.6607 26.5761 59.0447L23.5252 55.6947C22.9328 55.0444 22.2043 54.5327 21.3916 54.1961C20.5788 53.8596 19.7019 53.7064 18.8232 53.7475L14.2976 53.9568C13.466 53.996 12.6353 53.8612 11.8588 53.561C11.0823 53.2608 10.377 52.8018 9.78798 52.2133C9.199 51.6249 8.73933 50.9201 8.43836 50.1438C8.1374 49.3676 8.00177 48.5371 8.04016 47.7054L8.25253 43.1769C8.29364 42.2981 8.14045 41.4212 7.80387 40.6084C7.4673 39.7957 6.95563 39.0672 6.30531 38.4748L2.95526 35.4239C2.33935 34.8632 1.8473 34.1801 1.51061 33.4184C1.17391 32.6566 1 31.8329 1 31C1 30.1671 1.17391 29.3434 1.51061 28.5817C1.8473 27.8199 2.33935 27.1368 2.95526 26.5761L6.30531 23.5252C6.95563 22.9328 7.4673 22.2043 7.80387 21.3916C8.14045 20.5788 8.29364 19.7019 8.25253 18.8232L8.04315 14.2976C8.00397 13.466 8.1388 12.6353 8.43902 11.8588C8.73925 11.0823 9.19824 10.377 9.78666 9.78798C10.3751 9.199 11.0799 8.73933 11.8562 8.43836C12.6324 8.1374 13.4629 8.00177 14.2946 8.04016L18.8232 8.25253C19.7019 8.29364 20.5788 8.14045 21.3916 7.80387C22.2043 7.4673 22.9328 6.95563 23.5252 6.30531L26.5761 2.95526Z" fill="#F1A7A7" stroke="#F1A7A7" stroke-width="2"/>
<path d="M22.0264 30.9998L28.0086 36.9821L39.9731 25.0176" fill="#F1A7A7"/>
<path d="M22.0264 30.9998L28.0086 36.9821L39.9731 25.0176" stroke="#231C1D" stroke-width="5" stroke-linecap="round" stroke-linejoin="round"/>
</svg>
